<?xml version="1.0" encoding="iso-8859-1"?>
<!-- Generator: Adobe Illustrator 23.0.2, SVG Export Plug-In . SVG Version: 6.00 Build 0)  -->
<svg version="1.1" id="Layer_1" xmlns="http://www.w3.org/2000/svg" xmlns:xlink="http://www.w3.org/1999/xlink" x="0px" y="0px"
	 viewBox="0 0 210 64" style="enable-background:new 0 0 210 64;" xml:space="preserve">
<polygon style="fill-rule:evenodd;clip-rule:evenodd;fill:#F79727;" points="38.085,14.321 29.667,22.74 25.113,18.186 
	33.531,9.768 33.551,9.747 26.739,2.96 0.084,29.516 26.739,56.071 33.606,49.23 33.531,49.156 27.437,43.061 25.16,40.785 
	29.714,36.231 31.99,38.507 38.085,44.602 38.168,44.685 44.902,37.975 36.437,29.509 44.847,21.098 44.895,21.05 38.113,14.293 "/>
<path style="fill-rule:evenodd;clip-rule:evenodd;fill:#0047B6;" d="M38.001,11.386l-8.418,8.419l-4.554-4.554l8.418-8.418
	l0.02-0.02l-6.813-6.787L0,26.581l26.654,26.555l6.867-6.841l-0.074-0.074l-6.095-6.095l-2.276-2.277l4.554-4.554l2.277,2.277
	l6.095,6.095l0.082,0.082l6.734-6.71l-8.465-8.465l8.41-8.411l0.048-0.048l-6.782-6.757L38.001,11.386L38.001,11.386z
	 M22.861,26.527l-4.554,4.554l-4.554-4.554l4.553-4.553L22.861,26.527z"/>
<path style="fill:#0047B6;" d="M57.566,18.576h8.091v2.748h-2.666v11.892h-2.826V21.324h-2.599V18.576L57.566,18.576z
	 M72.039,18.576h2.826V24.1h4.898v-5.523h2.816v14.64h-2.816v-6.42h-4.898v6.42h-2.826V18.576L72.039,18.576z M94.851,18.576h2.826
	l5.632,14.64h-2.897L99.267,30.2h-5.968l-1.196,3.016h-2.894L94.851,18.576L94.851,18.576z M96.285,22.459l-1.953,5.024h3.892
	L96.285,22.459L96.285,22.459z M109.749,18.576h2.765v14.64h-2.765V18.576L109.749,18.576z M127.246,18.576h2.728l3.383,10.21
	l3.434-10.21h2.687l2.466,14.64h-2.687l-1.573-9.246l-3.115,9.246h-2.456l-3.074-9.246l-1.603,9.246h-2.717L127.246,18.576
	L127.246,18.576z M148.455,18.576h2.765v14.64h-2.765V18.576L148.455,18.576z M172.29,21.154l-1.95,1.862
	c-1.328-1.399-2.82-2.099-4.477-2.099c-1.403,0-2.581,0.479-3.539,1.433c-0.958,0.955-1.437,2.133-1.437,3.533
	c0,0.975,0.21,1.841,0.635,2.595c0.424,0.757,1.026,1.352,1.8,1.783c0.778,0.431,1.641,0.646,2.588,0.646
	c0.809,0,1.549-0.149,2.221-0.452c0.669-0.302,1.406-0.849,2.208-1.647l1.892,1.97c-1.083,1.057-2.106,1.787-3.067,2.194
	c-0.962,0.408-2.059,0.612-3.295,0.612c-2.272,0-4.137-0.72-5.587-2.164c-1.447-1.444-2.174-3.292-2.174-5.547
	c0-1.461,0.33-2.758,0.992-3.893c0.659-1.135,1.603-2.045,2.837-2.735c1.229-0.689,2.555-1.036,3.974-1.036
	c1.209,0,2.371,0.255,3.489,0.768C170.516,19.487,171.481,20.213,172.29,21.154L172.29,21.154z M179.399,18.576h2.955
	c1.62,0,2.772,0.146,3.458,0.435c0.686,0.289,1.239,0.768,1.658,1.437c0.418,0.669,0.625,1.464,0.625,2.378
	c0,0.965-0.228,1.766-0.69,2.415c-0.462,0.645-1.158,1.135-2.086,1.467l3.465,6.508h-3.047l-3.295-6.199h-0.258v6.199h-2.785V18.576
	L179.399,18.576z M182.184,24.3h0.877c0.89,0,1.501-0.115,1.838-0.35c0.333-0.231,0.499-0.615,0.499-1.152
	c0-0.319-0.081-0.598-0.248-0.832c-0.166-0.235-0.387-0.404-0.666-0.506c-0.278-0.105-0.788-0.156-1.532-0.156h-0.768V24.3
	L182.184,24.3z M202.425,18.21c2.072,0,3.852,0.751,5.34,2.249c1.491,1.501,2.235,3.329,2.235,5.482
	c0,2.136-0.734,3.947-2.204,5.424c-1.471,1.481-3.254,2.218-5.35,2.218c-2.194,0-4.019-0.757-5.472-2.279
	c-1.454-1.518-2.181-3.322-2.181-5.411c0-1.4,0.34-2.687,1.016-3.862c0.676-1.175,1.607-2.106,2.792-2.792
	C199.783,18.553,201.06,18.21,202.425,18.21L202.425,18.21z M202.398,20.937c-1.355,0-2.493,0.468-3.414,1.413
	c-0.924,0.941-1.386,2.14-1.386,3.591c0,1.62,0.581,2.901,1.743,3.842c0.904,0.737,1.936,1.104,3.105,1.104
	c1.321,0,2.446-0.476,3.373-1.43c0.931-0.958,1.396-2.133,1.396-3.533c0-1.396-0.469-2.575-1.406-3.539
	C204.874,21.419,203.737,20.937,202.398,20.937z"/>
<g>
	<path style="fill:#F79727;" d="M82.465,38.354h1.263c0.813,0,1.418,0.101,1.813,0.302c0.396,0.202,0.721,0.53,0.977,0.984
		c0.256,0.454,0.384,0.984,0.384,1.591c0,0.431-0.072,0.827-0.215,1.188c-0.143,0.362-0.341,0.662-0.593,0.9
		s-0.525,0.403-0.819,0.495c-0.294,0.091-0.804,0.137-1.528,0.137h-1.282V38.354z M83.523,39.382v3.531h0.495
		c0.487,0,0.84-0.056,1.06-0.168c0.219-0.111,0.399-0.299,0.539-0.563c0.139-0.264,0.209-0.589,0.209-0.976
		c0-0.594-0.166-1.055-0.499-1.383c-0.299-0.294-0.78-0.441-1.442-0.441H83.523z"/>
	<path style="fill:#F79727;" d="M89.86,38.354h1.058v5.598H89.86V38.354z"/>
	<path style="fill:#F79727;" d="M99.302,39.268l-0.75,0.742c-0.475-0.503-1.028-0.754-1.661-0.754c-0.551,0-1.013,0.183-1.385,0.548
		s-0.558,0.81-0.558,1.332c0,0.541,0.193,0.999,0.579,1.374c0.386,0.376,0.862,0.563,1.429,0.563c0.368,0,0.679-0.077,0.932-0.232
		c0.252-0.154,0.457-0.396,0.611-0.727h-1.621v-1.001h2.816l0.008,0.235c0,0.49-0.127,0.954-0.38,1.394
		c-0.254,0.438-0.583,0.773-0.986,1.005c-0.403,0.23-0.876,0.346-1.419,0.346c-0.581,0-1.099-0.126-1.555-0.379
		c-0.456-0.252-0.816-0.611-1.081-1.078s-0.397-0.971-0.397-1.511c0-0.741,0.245-1.386,0.734-1.934
		c0.581-0.652,1.337-0.979,2.268-0.979c0.487,0,0.943,0.091,1.366,0.271C98.609,38.636,98.959,38.897,99.302,39.268z"/>
	<path style="fill:#F79727;" d="M102.622,38.354h1.058v5.598h-1.058V38.354z"/>
	<path style="fill:#F79727;" d="M106.344,38.354h3.094v1.05h-1.021v4.548h-1.08v-4.548h-0.993V38.354z"/>
	<path style="fill:#F79727;" d="M113.894,38.354h1.08l2.153,5.598h-1.107l-0.438-1.153h-2.284l-0.455,1.153h-1.107L113.894,38.354z
		 M114.44,39.838l-0.751,1.922h1.497L114.44,39.838z"/>
	<path style="fill:#F79727;" d="M119.969,38.354h1.065v4.582h1.553v1.016h-2.618V38.354z"/>
	<path style="fill:#F79727;" d="M134.731,39.115l-0.789,0.696c-0.277-0.386-0.56-0.578-0.847-0.578c-0.14,0-0.254,0.037-0.343,0.112
		c-0.089,0.074-0.134,0.159-0.134,0.253s0.032,0.183,0.096,0.267c0.086,0.111,0.347,0.352,0.781,0.719
		c0.407,0.34,0.653,0.555,0.74,0.644c0.216,0.218,0.368,0.427,0.459,0.626c0.09,0.199,0.135,0.417,0.135,0.652
		c0,0.459-0.158,0.839-0.476,1.138c-0.317,0.3-0.731,0.449-1.242,0.449c-0.398,0-0.746-0.098-1.042-0.293s-0.549-0.502-0.76-0.921
		l0.896-0.54c0.27,0.494,0.579,0.742,0.93,0.742c0.184,0,0.337-0.054,0.462-0.16c0.124-0.106,0.187-0.229,0.187-0.369
		c0-0.127-0.047-0.254-0.142-0.381c-0.094-0.127-0.301-0.32-0.621-0.582c-0.61-0.497-1.004-0.881-1.182-1.151
		s-0.267-0.54-0.267-0.809c0-0.388,0.147-0.721,0.443-0.999c0.296-0.277,0.661-0.417,1.096-0.417c0.279,0,0.546,0.065,0.798,0.194
		C134.163,38.537,134.437,38.772,134.731,39.115z"/>
	<path style="fill:#F79727;" d="M140.507,38.213c0.792,0,1.474,0.287,2.043,0.86c0.57,0.573,0.855,1.272,0.855,2.097
		c0,0.817-0.281,1.509-0.844,2.074c-0.562,0.566-1.245,0.849-2.047,0.849c-0.841,0-1.538-0.29-2.095-0.871
		c-0.556-0.581-0.834-1.271-0.834-2.07c0-0.535,0.13-1.027,0.389-1.477s0.615-0.805,1.068-1.067S139.984,38.213,140.507,38.213z
		 M140.495,39.256c-0.518,0-0.953,0.181-1.307,0.541c-0.353,0.359-0.529,0.817-0.529,1.373c0,0.619,0.223,1.109,0.667,1.47
		c0.346,0.281,0.741,0.422,1.188,0.422c0.505,0,0.936-0.183,1.291-0.548s0.534-0.815,0.534-1.351c0-0.533-0.18-0.984-0.538-1.354
		C141.444,39.44,141.009,39.256,140.495,39.256z"/>
	<path style="fill:#F79727;" d="M146.428,38.354h1.065v4.582h1.553v1.016h-2.618V38.354z"/>
	<path style="fill:#F79727;" d="M151.836,38.354h1.069v3.619c0,0.312,0.027,0.533,0.082,0.662c0.054,0.129,0.145,0.232,0.27,0.31
		c0.126,0.078,0.277,0.116,0.455,0.116c0.188,0,0.35-0.043,0.485-0.129s0.229-0.196,0.281-0.329s0.078-0.388,0.078-0.763v-3.486
		h1.069v3.337c0,0.563-0.031,0.954-0.095,1.172c-0.063,0.219-0.185,0.43-0.363,0.632c-0.18,0.203-0.386,0.354-0.619,0.451
		s-0.505,0.146-0.814,0.146c-0.405,0-0.759-0.093-1.06-0.279s-0.516-0.42-0.646-0.7c-0.129-0.28-0.193-0.754-0.193-1.422V38.354z"/>
	<path style="fill:#F79727;" d="M158.329,38.354h3.094v1.05h-1.021v4.548h-1.08v-4.548h-0.993V38.354z"/>
	<path style="fill:#F79727;" d="M164.095,38.354h1.058v5.598h-1.058V38.354z"/>
	<path style="fill:#F79727;" d="M171.012,38.213c0.792,0,1.474,0.287,2.043,0.86c0.57,0.573,0.855,1.272,0.855,2.097
		c0,0.817-0.281,1.509-0.844,2.074c-0.562,0.566-1.245,0.849-2.047,0.849c-0.841,0-1.538-0.29-2.095-0.871
		c-0.556-0.581-0.834-1.271-0.834-2.07c0-0.535,0.13-1.027,0.389-1.477s0.615-0.805,1.068-1.067S170.489,38.213,171.012,38.213z
		 M171,39.256c-0.518,0-0.953,0.181-1.307,0.541c-0.353,0.359-0.529,0.817-0.529,1.373c0,0.619,0.223,1.109,0.667,1.47
		c0.346,0.281,0.741,0.422,1.188,0.422c0.505,0,0.936-0.183,1.291-0.548s0.534-0.815,0.534-1.351c0-0.533-0.18-0.984-0.538-1.354
		C171.949,39.44,171.514,39.256,171,39.256z"/>
	<path style="fill:#F79727;" d="M176.937,38.354h1.021l2.396,3.684v-3.684h1.065v5.598h-1.024l-2.393-3.673v3.673h-1.065V38.354z"/>
	<path style="fill:#F79727;" d="M187.653,39.115l-0.789,0.696c-0.277-0.386-0.56-0.578-0.847-0.578c-0.14,0-0.254,0.037-0.343,0.112
		c-0.089,0.074-0.134,0.159-0.134,0.253s0.032,0.183,0.096,0.267c0.086,0.111,0.347,0.352,0.781,0.719
		c0.407,0.34,0.653,0.555,0.74,0.644c0.216,0.218,0.368,0.427,0.459,0.626c0.09,0.199,0.135,0.417,0.135,0.652
		c0,0.459-0.158,0.839-0.476,1.138c-0.317,0.3-0.731,0.449-1.242,0.449c-0.398,0-0.746-0.098-1.042-0.293s-0.549-0.502-0.76-0.921
		l0.896-0.54c0.27,0.494,0.579,0.742,0.93,0.742c0.184,0,0.337-0.054,0.462-0.16c0.124-0.106,0.187-0.229,0.187-0.369
		c0-0.127-0.047-0.254-0.142-0.381c-0.094-0.127-0.301-0.32-0.621-0.582c-0.61-0.497-1.004-0.881-1.182-1.151
		s-0.267-0.54-0.267-0.809c0-0.388,0.147-0.721,0.443-0.999c0.296-0.277,0.661-0.417,1.096-0.417c0.279,0,0.546,0.065,0.798,0.194
		C187.085,38.537,187.358,38.772,187.653,39.115z"/>
</g>
<path style="fill-rule:evenodd;clip-rule:evenodd;fill:#A2A9AD;" d="M22.41,64c7.128,0,12.941-0.632,12.941-1.406
	c0-0.774-5.814-1.406-12.941-1.406c-7.128,0-12.942,0.632-12.942,1.406C9.468,63.368,15.282,64,22.41,64z"/>
<g>
</g>
<g>
</g>
<g>
</g>
<g>
</g>
<g>
</g>
<g>
</g>
<g>
</g>
<g>
</g>
<g>
</g>
<g>
</g>
<g>
</g>
<g>
</g>
<g>
</g>
<g>
</g>
<g>
</g>
</svg>
